<svg xmlns="http://www.w3.org/2000/svg" viewBox="0 0 100 120" role="img" aria-label="Edenseek — Society of Killers imprint">
  <title>Edenseek (noir imprint)</title>
  <path d="M12 114 V46 C12 22 29 8 50 8 C71 8 88 22 88 46 V114 Z"
        fill="none" stroke="currentColor" stroke-width="5"/>
  <path d="M43 38 Q33 41 32 54 Q31 65 37 74 Q39 77 41 79 L41 100 L73 100 L64 80
           Q63 76 66 73 Q71 71 69 66 Q66 65 67 62 L71 59 Q72 58 69 56 Q68 52 69 50
           Q69 44 63 40 Q53 36 43 38 Z"
        fill="currentColor"/>
  <!-- Fedora: crown + brim -->
  <path d="M40 40 Q42 26 56 28 Q68 30 66 42 Z" fill="currentColor"/>
  <path d="M28 42 Q50 34 74 42 Q74 47 66 47 L40 47 Q30 47 28 42 Z" fill="currentColor"/>
</svg>
